<?xml version="1.0" encoding="utf-8"?>
<!-- Generator: Adobe Illustrator 16.0.0, SVG Export Plug-In . SVG Version: 6.00 Build 0)  -->
<!DOCTYPE svg PUBLIC "-//W3C//DTD SVG 1.1//EN" "http://www.w3.org/Graphics/SVG/1.1/DTD/svg11.dtd">
<svg version="1.1" id="Layer_1" xmlns="http://www.w3.org/2000/svg" xmlns:xlink="http://www.w3.org/1999/xlink" x="0px" y="0px"
	 width="2000px" height="1300px" viewBox="0 0 2000 1300" enable-background="new 0 0 2000 1300" xml:space="preserve">
<g>
	<rect fill="#FFFFFF" width="2000" height="1300"/>
	<path fill="none" stroke="#31140C" stroke-width="2" stroke-linecap="round" stroke-miterlimit="10" d="M1684.18,817.842
		c0,0,31.574-66.073,0.09-79.552c-31.482-13.479-84.222-15.039-84.222-15.039l-4.224-19.421c0,0,95.98,2.913,113.944,34.488
		s-0.1,88.354-0.1,88.354"/>
	<path fill="#A5403E" d="M1194.497,1167.206l29,0.033c0,0,3.092-80.997,50.112-98.944c47.021-17.946,195.012-10.779,195.012-10.779
		s15.01-7.982,16.028-24.981c1.02-16.999-25.369-22.029-47.171-23.054s-188.782-18.213-216.854,45.755
		C1192.552,1119.204,1194.497,1167.206,1194.497,1167.206z"/>
	<g>
		
			<ellipse transform="matrix(0.939 0.3439 -0.3439 0.939 289.6115 -479.7649)" fill="#31140C" cx="1497.337" cy="576.577" rx="28.334" ry="40.334"/>
		
			<ellipse transform="matrix(0.939 0.3439 -0.3439 0.939 291.542 -483.0859)" fill="#D1C392" cx="1507.666" cy="580.359" rx="23" ry="32.741"/>
	</g>
	<path fill="#FFCABC" d="M1129.248,655.133c0,0,1.086-18.927-6.717-24.114c-7.804-5.188-33.357-8.855-32.272-26.603
		s2.165-31.28,4.302-37.667c2.138-6.387,18.471-10.65,24.861-11.708c6.391-1.058,9.936,3.195,9.936,3.195l10.992,11.366
		c0,0-11.018,11.699-11.025,18.798c-0.009,7.1,19.158,8.895,25.19,10.676s2.138-6.743,2.138-6.743s-7.797-11.724-5.305-17.755
		c2.491-6.032,8.876-1.766,8.876-1.766s1.055,9.231,6.018,15.271c4.963,6.041,15.601,15.458,13.454,31.075
		c-2.148,15.617-1.461,36.028-1.461,36.028L1129.248,655.133z"/>
	<polygon fill="#FE5B44" points="1124.059,670.126 1124.077,654.127 1195.08,651.206 1195.059,670.207 	"/>
	<path fill="#3E3377" d="M1445.466,694.34c0,0-73.487,47.066-101.521,77.035c-28.034,29.968-118.107,94.866-118.107,94.866
		l-23.771-202.026l-84.006,4.904c0,0-8.316,280.011,12.639,319.524c20.955,39.515,89.178,50.812,141.974,23.651
		c52.796-27.162,199.243-215.775,199.243-215.775L1445.466,694.34z"/>
	<path fill="#A5403E" d="M578.541,1128.51c0,0,30.043-37.966,108.039-34.878c77.997,3.089,100.96,35.114,100.96,35.114
		L578.541,1128.51z"/>
	<polygon fill="#31140C" points="760.832,870.716 698.786,911.359 664.575,1098.607 716.574,1098.666 729.757,937.541 
		768.793,904.894 	"/>
	<polygon fill="#A5403E" points="776.043,683.733 729.969,749.681 792.683,1002.752 886.713,975.858 	"/>
	<polygon fill="#FE5B44" points="761.066,663.717 881.692,994.853 926.708,980.903 795.075,655.754 	"/>
	<path fill="#CFDE00" d="M539.618,1060.466c0,0,65.157-138.926,17.187-164.98c-47.97-26.054-42.186,164.952-42.186,164.952
		L539.618,1060.466z"/>
	<path fill="#CFDE00" d="M483.643,1038.402c0,0-22.049-211.024-75.415-202.085s54.424,194.062,54.424,194.062L483.643,1038.402z"/>
	<path fill="#CFDE00" d="M523.634,1046.448c0,0,31.3-265.965-17.681-282.521c-48.981-16.555-60.166,146.433-35.284,251.461
		l1.044,18.454L523.634,1046.448z"/>
	<path fill="#DFD2A8" d="M465.54,1129.383l93,0.104c0,0,18.023-20.979,20.07-61.978l-145.935-57.164
		C432.675,1010.346,446.596,1080.361,465.54,1129.383z"/>
	<path fill="#FFCABC" d="M1150.464,1040.656c0,0-32.332,7.777-45.329,5.357c-12.998-2.418-56.996-4.271-68.507,5.933
		c-11.512,10.205-27.034,30.021-27.034,30.021l-4.521,18.025l21.5,0.024l22.52-17.404c0,0,8.987,12.03,31.991,7.85
		c23.005-4.181,39.496,3.651,48.507-5.955l14.6,2.504L1150.464,1040.656z"/>
	<polygon fill="#FE5B44" points="879.54,1129.851 896.573,1099.869 1110.573,1100.111 1117.538,1131.119 	"/>
	<rect x="909.578" y="1091.898" transform="matrix(1 0.0011 -0.0011 1 1.1992 -1.0079)" fill="#A5403E" width="25" height="8"/>
	<rect x="941.578" y="1091.968" transform="matrix(1 0.0011 -0.0011 1 1.2473 -1.1185)" fill="#A5403E" width="85" height="8"/>
	<rect x="1036.578" y="1092.042" transform="matrix(1 0.0011 -0.0011 1 1.2423 -1.1876)" fill="#A5403E" width="25" height="8"/>
	<rect x="1068.578" y="1092.078" transform="matrix(1 0.0011 -0.0011 1 1.1995 -1.1818)" fill="#A5403E" width="25" height="8"/>
	<path fill="#31140C" d="M1735.741,951.817c-14.073,64.984-96.244,215.892-96.244,215.892l-197-0.223
		c0,0,57.357-315.936,80.39-344.909c23.033-28.974,109.027-23.877,175.015-12.803c1.8,0.302,3.54,0.644,5.22,1.025
		C1763.125,824.448,1749.433,888.603,1735.741,951.817z"/>
	<path fill="#532623" d="M1735.741,951.817c-14.073,64.984-96.244,215.892-96.244,215.892l-36.78-0.041
		c-34.428-81.209,61.785-278.19,83.155-331.906c4.383-11.025,10.392-19.109,17.249-24.962
		C1763.125,824.448,1749.433,888.603,1735.741,951.817z"/>
	<path fill="#524B8E" d="M1613.869,838.68c-19.074,64.979-80.326,287.91-81.372,328.908l-237-0.268
		c0,0,27.204-179.97,45.294-259.949c16.814-74.36,44.91-185.869,106.652-213.969c4.672-2.125,9.533-3.779,14.595-4.895
		c28.798-6.367,90.163-20.737,128.617-5.435c6.547,2.607,12.433,6.085,17.378,10.6
		C1641.998,724.712,1632.942,773.701,1613.869,838.68z"/>
	<path fill="#DFD2A8" d="M1590.655,683.073l-170.776,147.058l27.564-136.729c4.672-2.125,9.533-3.779,14.595-4.895
		C1490.836,682.141,1552.201,667.771,1590.655,683.073z"/>
	<polygon fill="#C1B081" points="1482.043,684.531 1482.057,672.531 1503.969,676.298 1495.256,700.379 	"/>
	<polygon fill="#FE5B44" points="1154.645,1037.161 1142.645,1037.147 1144.582,1092.149 1158.228,1092.771 	"/>
	<path fill="#FFCABC" d="M1508.893,522.228c0,0-50.774,95.276-30.128,113.299c20.646,18.024,34.431,25.346,22.846,45.012
		c-11.585,19.667,33.103,1.102,33.103,1.102l26.686-17.02l54.813-129.605c0,0-8.63-32.677-48.958-37.389
		S1514.559,511.057,1508.893,522.228z"/>
	<path fill="#FE5B44" d="M1505.662,432.224l-33.364,26.629c0,0-13.314,57.037,29.621,77.226l6.974-13.852
		c0,0,20.363,14.023,36.184,5.375c15.821-8.649,34.489-10.627,43.814-2.617c9.324,8.011,6.615,44.674-0.062,54.667
		c-6.678,9.993,10.656,6.678-1.361,23.332l-4.687,19.457c0,0,19.349-14.106,33.377-38.757c14.028-24.65,36.729-54.625,8.103-91.324
		C1595.635,455.659,1574.268,486.301,1505.662,432.224z"/>
	<polygon fill="#FE5B44" points="1490.024,700.373 1419.919,794.127 1419.878,830.461 1454.906,804.833 1494.188,703.716 	"/>
	<path fill="#3E3377" d="M1467.192,687.365l-47.313,142.762c0,0-21.289-38.691-11.271-54.013
		c10.017-15.322,15.361-25.316,15.361-25.316s-13.303-27.348-4.622-39.338S1459.024,675.875,1467.192,687.365z"/>
	<path fill="#3E3377" d="M1569.565,677.696c0,0-90.903,49.163-149.687,152.431c0,0,54.877-25.271,74.805-42.582
		c19.93-17.312,11.274-27.321,11.274-27.321s84.974-31.116,89.888-75.838C1595.846,684.386,1576.186,673.812,1569.565,677.696z"/>
	<path fill="#524B8E" d="M1518.965,753.572c-15.025,22.983-75.178,157.915-83.207,183.906s-20.078,69.202-20.078,69.202
		s-155.025,21.601-189.026,22.562c-34.001,0.962-72.009,7.919-72.009,7.919l-0.062,55c0,0,304.941,52.345,349,0.395
		s113.55-268.872,122.463-300.862c8.913-31.989,22.538-76.887-24.236-102.687C1555.035,663.207,1518.965,753.572,1518.965,753.572z"
		/>
	<path fill="none" stroke="#DFD2A8" stroke-width="2" stroke-miterlimit="10" d="M1311.521,1111.785
		c81.996,6.646,169.722,6.815,191.811-19.23"/>
	<path fill="none" stroke="#DFD2A8" stroke-width="2" stroke-miterlimit="10" d="M1518.965,753.572
		c-15.025,22.983-75.178,157.915-83.207,183.906s-20.078,69.202-20.078,69.202s-155.275,21.6-189.276,22.562"/>
	<polygon fill="none" stroke="#DFD2A8" stroke-width="2" stroke-miterlimit="10" points="564.725,700.59 299.447,681.503 
		299.774,391.596 582.547,386.457 	"/>
	
		<ellipse transform="matrix(1 0.0011 -0.0011 1 1.1697 -0.9348)" fill="none" stroke="#DFD2A8" stroke-width="2" stroke-miterlimit="10" cx="829.645" cy="1036.765" rx="42" ry="10.029"/>
	<g>
		<g>
			<path fill="#B6A269" d="M951.692,996.432c1.935,0,1.935-3,0-3S949.758,996.432,951.692,996.432L951.692,996.432z"/>
		</g>
	</g>
	<polyline fill="none" stroke="#DFD2A8" stroke-width="2" stroke-miterlimit="10" points="787.644,1037.468 805.538,1130.767 
		860.538,1130.829 868.959,1040.713 	"/>
	<path fill="#DFD2A8" d="M802.104,1073.263l7.444,49.509l42,0.047l5.556-49.493c0,0-10.51,8.237-20.507,5.727
		C826.6,1076.54,813.114,1064.025,802.104,1073.263z"/>
	<g>
		
			<ellipse transform="matrix(0.939 0.3439 -0.3439 0.939 302.7311 -511.491)" fill="#31140C" cx="1593.313" cy="597.685" rx="28.333" ry="40.333"/>
		
			<ellipse transform="matrix(0.939 0.3439 -0.3439 0.939 304.6552 -514.8047)" fill="#A5403E" cx="1603.642" cy="601.468" rx="23" ry="32.741"/>
	</g>
	<path fill="#A5403E" d="M1600.098,558.569c0,0,20.182-62.921,8.189-80.916l-40.997-11.888c0,0,31.365-19.159,56.172,0.063
		c24.806,19.223-4.858,103.896-4.858,103.896L1600.098,558.569z"/>
	<path fill="none" stroke="#31140C" stroke-width="5" stroke-linecap="round" stroke-miterlimit="10" d="M1575.438,629.636
		c0,0-13.681,30.355-50.692,21.942l-16.758-6.018"/>
	<path fill="#A5403E" d="M1517.734,645.704c-0.803,2.929-3.829,4.653-6.759,3.85l-8.68-2.379c-2.93-0.803-4.653-3.829-3.851-6.758
		l0,0c0.804-2.93,3.829-4.653,6.759-3.85l8.68,2.379C1516.813,639.749,1518.537,642.774,1517.734,645.704L1517.734,645.704z"/>
	<path fill="#A5403E" d="M1352.497,1167.385l29,0.033c0,0,3.092-80.997,50.112-98.943c47.02-17.947,195.012-10.78,195.012-10.78
		s15.01-7.983,16.028-24.981c1.02-16.999-25.369-22.029-47.171-23.054s-188.782-18.213-216.854,45.755
		C1350.552,1119.383,1352.497,1167.385,1352.497,1167.385z"/>
	<path fill="#C1B081" d="M1494.188,703.716l8.781-27.419c0,0,48.104-18.021,64.103-16.67l-0.02,17L1494.188,703.716z"/>
	<path fill="none" stroke="#DFD2A8" stroke-width="2" stroke-miterlimit="10" d="M1419.879,830.127
		c0,0-46.482,139.348-57.871,183.802"/>
	<path fill="none" stroke="#31140C" stroke-width="2" stroke-linecap="round" stroke-miterlimit="10" d="M1508.165,576.59
		c0,0-16.191,21.552-4.111,24.766"/>
	<path fill="none" stroke="#31140C" stroke-width="2" stroke-linecap="round" stroke-miterlimit="10" d="M1502.564,617.598
		c0,0,4.537,9.777,16.276,4.049"/>
	<path fill="none" stroke="#31140C" stroke-width="2" stroke-linecap="round" stroke-miterlimit="10" d="M1129.357,558.236
		c0,0-25.681,7.367-26.687,12.866s-0.034,29.8-0.034,29.8"/>
	<path fill="none" stroke="#31140C" stroke-width="2" stroke-linecap="round" stroke-miterlimit="10" d="M1133.146,562.154
		c0,0-18.979,12.365-19.485,17.412c-0.506,5.047,2.093,19.05,2.093,19.05"/>
	<path fill="none" stroke="#31140C" stroke-width="2" stroke-linecap="round" stroke-miterlimit="10" d="M1137.328,566.478
		c0,0-13.265,13.148-13.971,17.647c-0.706,4.499,5.955,14.507,5.955,14.507"/>
	<path fill="none" stroke="#31140C" stroke-width="2" stroke-linecap="round" stroke-miterlimit="10" d="M1157.475,598.664
		c0,0-11.339,3.605-10.85,13.047"/>
	<path fill="none" stroke="#31140C" stroke-width="2" stroke-linecap="round" stroke-miterlimit="10" d="M1013.583,1092.002
		c0,0,25.704-34.303,35.539-34.959s19.5,0.021,19.5,0.021"/>
	<path fill="none" stroke="#31140C" stroke-width="2" stroke-linecap="round" stroke-miterlimit="10" d="M1057.607,1070.189
		c0,0-24.007,5.501-31.025,21.827"/>
	<polygon fill="#31140C" points="1217.813,1167.232 248.674,1166.138 228.385,1128.115 1197.924,1129.21 	"/>
	
		<line fill="none" stroke="#DFD2A8" stroke-width="2" stroke-miterlimit="10" x1="775.946" y1="660.232" x2="902.561" y2="988.386"/>
	
		<line fill="none" stroke="#31140C" stroke-width="2" stroke-linecap="round" stroke-miterlimit="10" x1="436.542" y1="1028.35" x2="574.262" y2="1083.492"/>
	<path fill="none" stroke="#31140C" stroke-width="2" stroke-linecap="round" stroke-miterlimit="10" d="M457.856,903.708
		c0,0,22.846,82.514,25.796,126.606"/>
	<path fill="none" stroke="#31140C" stroke-width="2" stroke-linecap="round" stroke-miterlimit="10" d="M533.465,904.628
		c0,0-0.696,114.926-9.778,141.368"/>
	<path fill="#FE5B44" d="M495.82,763.089c0,0-7.108-22.681,0.029-25.673c7.137-2.991,6.119,12.844,6.119,12.844
		s6.536-14.585,12.774-13.2c6.238,1.386-0.021,19.378-0.021,19.378s7.251-9.99,12.578-4.318s-20.02,17.311-20.02,17.311
		L495.82,763.089z"/>
	<path fill="#FE5B44" d="M547.662,903.148c0,0-7.108-22.682,0.029-25.673c7.138-2.992,6.12,12.843,6.12,12.843
		s6.536-14.585,12.775-13.2c6.238,1.386-0.022,19.378-0.022,19.378s7.252-9.99,12.579-4.318s-20.02,17.311-20.02,17.311
		L547.662,903.148z"/>
	<path fill="#FE5B44" d="M402.658,847.184c0,0-12.673-6.778-10.859-11.093s8.08,2.952,8.08,2.952s-3.356-9.062-0.076-11.107
		c3.278-2.044,8.196,8.373,8.196,8.373s-1.101-7.383,3.6-7.191c4.701,0.191-1.309,15.949-1.309,15.949L402.658,847.184z"/>
	<g>
		<polyline fill="none" stroke="#F9F6F4" stroke-width="2" stroke-miterlimit="10" points="498.094,779.304 489.469,796.421 
			506.046,794.229 		"/>
		
			<line fill="none" stroke="#F9F6F4" stroke-width="2" stroke-miterlimit="10" x1="503.369" y1="785.94" x2="489.469" y2="796.421"/>
	</g>
	<g>
		<polyline fill="none" stroke="#F9F6F4" stroke-width="2" stroke-miterlimit="10" points="484.017,847.288 475.392,864.405 
			491.969,862.214 		"/>
		
			<line fill="none" stroke="#F9F6F4" stroke-width="2" stroke-miterlimit="10" x1="489.293" y1="853.925" x2="475.392" y2="864.405"/>
	</g>
	<g>
		<polyline fill="none" stroke="#F9F6F4" stroke-width="2" stroke-miterlimit="10" points="414.003,859.209 405.378,876.326 
			421.955,874.135 		"/>
		
			<line fill="none" stroke="#F9F6F4" stroke-width="2" stroke-miterlimit="10" x1="419.279" y1="865.846" x2="405.378" y2="876.326"/>
	</g>
	<g>
		<polyline fill="none" stroke="#F9F6F4" stroke-width="2" stroke-miterlimit="10" points="443.961,896.243 435.336,913.36 
			451.913,911.169 		"/>
		<line fill="none" stroke="#F9F6F4" stroke-width="2" stroke-miterlimit="10" x1="449.237" y1="902.88" x2="435.336" y2="913.36"/>
	</g>









	

	<path fill="none" stroke="#31140C" stroke-width="2" stroke-linecap="round" stroke-miterlimit="10" d="M1494.422,496.794
		c0,0,0.814,19.018,14.471,25.434"/>
	<polygon fill="#FFC2B7" points="485.422,348.544 233.423,348.26 233.503,277.26 485.482,295.544 	"/>
	
		<rect x="261.46" y="306.337" transform="matrix(1 0.0011 -0.0011 1 0.3551 -0.3402)" fill="none" stroke="#F9F6F4" stroke-width="2" stroke-miterlimit="10" width="81" height="17"/>
	
		<line fill="none" stroke="#31140C" stroke-width="2" stroke-linecap="round" stroke-miterlimit="10" x1="138" y1="1167" x2="1848" y2="1167"/>
	<rect x="1374.433" y="208.793" fill="none" width="458.419" height="446.861"/>
</g>
</svg>
